<svg id="Layer_1" data-name="Layer 1" xmlns="http://www.w3.org/2000/svg" viewBox="0 0 475 90"><defs><style>.cls-1,.cls-3{opacity:0.87;}.cls-2,.cls-3{fill:#333;}.cls-4{fill:#ffc50a;}</style></defs><title>logo</title><g class="cls-1"><path class="cls-2" d="M88.73,56l5.54-7.78a21.06,21.06,0,0,0,15.27,6.48c5.62,0,8.35-2.59,8.35-5.33,0-8.5-27.65-2.66-27.65-20.74,0-8,6.91-14.62,18.22-14.62,7.63,0,14,2.3,18.72,6.7l-5.69,7.49a20.63,20.63,0,0,0-14-5.26c-4.39,0-6.84,1.94-6.84,4.82,0,7.63,27.58,2.52,27.58,20.45,0,8.78-6.26,15.41-19.23,15.41C99.81,63.68,93.19,60.58,88.73,56Z"/><path class="cls-2" d="M156.12,62.81L146.9,49.42l-4.18,4.46v8.93h-9.14v-48h9.14V43.51L155.9,28h11.23L153.38,43.8l14.19,19H156.12Z"/><path class="cls-2" d="M169.72,18.82a5.47,5.47,0,1,1,5.47,5.47A5.52,5.52,0,0,1,169.72,18.82Zm0.94,44V28h9.14V62.81h-9.14Z"/><path class="cls-2" d="M187.51,62.81v-48h9.14v48h-9.14Z"/><path class="cls-2" d="M204.35,62.81v-48h9.14v48h-9.14Z"/><path class="cls-2" d="M219.55,58.28l4-6.41a19.9,19.9,0,0,0,12,4.75c4,0,5.83-1.58,5.83-3.74,0-5.76-20.67-1.08-20.67-14.76,0-5.83,5.11-10.95,14.26-10.95a22.22,22.22,0,0,1,14,4.75l-3.67,6.26a14.67,14.67,0,0,0-10.3-4c-3.31,0-5.47,1.51-5.47,3.46,0,5.18,20.59.86,20.59,14.91,0,6.34-5.4,11.16-15,11.16C229.05,63.68,223.22,61.66,219.55,58.28Z"/></g><path class="cls-3" d="M12.49,20.69A108.25,108.25,0,0,0,43.27,59.74,93.76,93.76,0,0,1,18.71,15.61Q16,16.78,13.35,18.15a2,2,0,0,0-.86,2.54M46.62,62.3c1.66,1.23,3.4,2.42,5.14,3.55a1.94,1.94,0,0,0,2.62-.51A108.39,108.39,0,0,0,72.77,19.7,93.51,93.51,0,0,1,46.62,62.3M73.4,15.14c0.22-2.05.38-4.15,0.48-6.23a1.93,1.93,0,0,0-1.76-2A108.35,108.35,0,0,0,23.43,14a93.52,93.52,0,0,1,50,1.18"/><path class="cls-4" d="M63.07,24.22a2.64,2.64,0,0,0-1.82-3.32,58.9,58.9,0,0,0-14.57-1.8,58.19,58.19,0,0,0-14.46,1.8,2.64,2.64,0,0,0-1.82,3.31A57.23,57.23,0,0,0,44.89,49a2.61,2.61,0,0,0,3.68,0,58.14,58.14,0,0,0,14.5-24.75"/><g class="cls-1"><path class="cls-2" d="M90.49,82.88v-12h7.87V72.2H92v3.87h6.25V77.4H92v4.14h6.37v1.33H90.49Z"/><path class="cls-2" d="M111.36,82.88V73l-4.09,9.88h-0.61L102.59,73v9.88h-1.49v-12h2.14l3.73,9,3.75-9h2.14v12h-1.49Z"/><path class="cls-2" d="M116,82.88v-12h4.83a3.62,3.62,0,1,1,0,7.24h-3.33v4.77H116Zm7-8.39a2.23,2.23,0,0,0-2.39-2.29h-3.15v4.57h3.15A2.23,2.23,0,0,0,123.05,74.49Z"/><path class="cls-2" d="M126.45,76.88a6,6,0,1,1,6,6.21A5.86,5.86,0,0,1,126.45,76.88Zm10.37,0c0-2.81-1.73-4.88-4.41-4.88S128,74.07,128,76.88s1.71,4.88,4.41,4.88S136.83,79.67,136.83,76.88Z"/><path class="cls-2" d="M150.25,82.88l-2.65-9.69L145,82.88h-1.62l-3.42-12h1.66l2.66,10,2.75-10h1.24l2.75,10,2.65-10h1.66l-3.42,12h-1.62Z"/><path class="cls-2" d="M157.31,82.88v-12h7.87V72.2H158.8v3.87H165V77.4H158.8v4.14h6.37v1.33h-7.87Z"/><path class="cls-2" d="M174.86,82.88l-3.06-4.77H169.4v4.77h-1.49v-12h4.83a3.5,3.5,0,0,1,3.76,3.62A3.32,3.32,0,0,1,173.38,78l3.24,4.9h-1.76Zm0.09-8.39a2.23,2.23,0,0,0-2.39-2.29H169.4v4.59h3.15A2.25,2.25,0,0,0,174.95,74.49Z"/><path class="cls-2" d="M177.41,82.07a1,1,0,1,1,1,1A1,1,0,0,1,177.41,82.07Z"/><path class="cls-2" d="M195.81,82.88l-1.06-2.67h-6l-1.06,2.67H186l4.83-12h1.85l4.84,12h-1.71Zm-4.05-10.46-2.56,6.46h5.1Z"/><path class="cls-2" d="M199.44,82.88v-12h1.49V81.55h5.58v1.33h-7.08Z"/><path class="cls-2" d="M209,82.88v-12h1.49v12H209Z"/><path class="cls-2" d="M213.16,76.88a6,6,0,0,1,6.18-6.21A5.72,5.72,0,0,1,224,72.92l-1.19.74A4.43,4.43,0,0,0,219.34,72a4.9,4.9,0,0,0,0,9.78,4.74,4.74,0,0,0,3.22-1.3V78h-4.12V76.7h5.62V81a6.25,6.25,0,0,1-4.72,2.07A6,6,0,0,1,213.16,76.88Z"/><path class="cls-2" d="M235.34,82.88l-7-9.58v9.58h-1.49v-12h1.53l6.91,9.38V70.87h1.49v12h-1.44Z"/><path class="cls-2" d="M239.62,82.07a1,1,0,1,1,1,1A1,1,0,0,1,239.62,82.07Z"/><path class="cls-2" d="M249.45,82.88v-12h7.87V72.2h-6.37v3.87h6.25V77.4h-6.25v5.47h-1.49Z"/><path class="cls-2" d="M259.69,78.21V70.87h1.49v7.31c0,2.2,1.19,3.58,3.4,3.58s3.4-1.39,3.4-3.58V70.87h1.49V78.2c0,3-1.64,4.9-4.9,4.9S259.69,81.17,259.69,78.21Z"/><path class="cls-2" d="M272.65,82.88v-12h7.87V72.2h-6.37v3.87h6.25V77.4h-6.25v4.14h6.37v1.33h-7.87Z"/><path class="cls-2" d="M283.25,82.88v-12h1.49V81.55h5.58v1.33h-7.08Z"/><path class="cls-2" d="M292.47,82.07a1,1,0,1,1,1,1A1,1,0,0,1,292.47,82.07Z"/></g><g class="cls-1"><path class="cls-2" d="M259.92,62.81v-48h31.47v5.33H265.9V35.59h25v5.33h-25V57.48h25.49v5.33H259.92Z"/><path class="cls-2" d="M321.34,62.81V40.06c0-6.12-3.1-8.06-7.78-8.06a13.43,13.43,0,0,0-10.3,5.4V62.81h-5.4V28h5.4v5a17.25,17.25,0,0,1,12.38-5.91c7.27,0,11.09,3.67,11.09,11.23V62.81h-5.4Z"/><path class="cls-2" d="M334.65,71.74l2.74-4c2.88,3.46,6.34,4.75,11.31,4.75,5.76,0,11.16-2.81,11.16-10.44v-5a14.53,14.53,0,0,1-11.67,6.19c-9.07,0-15.48-6.77-15.48-18S339,27.17,348.19,27.17a14.41,14.41,0,0,1,11.67,6.12V28h5.4V61.8c0,11.52-8.06,15.12-16.56,15.12C342.79,76.92,338.76,75.77,334.65,71.74Zm25.2-18.94V37.61A12.81,12.81,0,0,0,349.49,32c-7,0-11.16,5.54-11.16,13.25s4.18,13.25,11.16,13.25A12.87,12.87,0,0,0,359.86,52.8Z"/><path class="cls-2" d="M372.24,19.46a3.64,3.64,0,1,1,7.27,0A3.64,3.64,0,0,1,372.24,19.46Zm0.94,43.35V28h5.4V62.81h-5.4Z"/><path class="cls-2" d="M410,62.81V40.06c0-6.12-3.1-8.06-7.78-8.06a13.43,13.43,0,0,0-10.3,5.4V62.81h-5.4V28H392v5a17.25,17.25,0,0,1,12.38-5.91c7.27,0,11.09,3.67,11.09,11.23V62.81H410Z"/><path class="cls-2" d="M421.41,45.39c0-10.08,7.2-18.22,17.14-18.22,10.51,0,16.71,8.21,16.71,18.65v1.37H427.1c0.43,6.55,5,12,12.53,12a15.2,15.2,0,0,0,10.73-4.39L453,58.35a18.89,18.89,0,0,1-13.83,5.33C428.83,63.68,421.41,56.26,421.41,45.39Zm17.07-13.75c-7.42,0-11.09,6.26-11.38,11.59h22.83C449.85,38,446.4,31.63,438.48,31.63Z"/></g><g class="cls-1"><path class="cls-2" d="M453.65,22.9V17h-2.11V16.23h5.06V17h-2.12V22.9h-0.83Z"/><path class="cls-2" d="M463,22.9V17.41l-2.27,5.49H460.4l-2.26-5.49V22.9h-0.83V16.23h1.19l2.07,5,2.08-5h1.19V22.9H463Z"/></g></svg>